<?xml version="1.0" encoding="UTF-8"?>
<svg width="256px" height="256px" viewBox="0 0 256 256" version="1.1" xmlns="http://www.w3.org/2000/svg" xmlns:xlink="http://www.w3.org/1999/xlink">
    <!-- Generator: Sketch 48.2 (47327) - http://www.bohemiancoding.com/sketch -->
    <title>safari-pinned-tab</title>
    <desc>Created with Sketch.</desc>
    <defs></defs>
    <g id="Page-1" stroke="none" stroke-width="1" fill="none" fill-rule="evenodd">
        <g id="safari-pinned-tab" fill="#939598" fill-rule="nonzero">
            <path d="M0,128 L0,256 L256,256 L256,0 L0,0 L0,128 Z M157,123.5 L157,135 L124,135 L124,240 L97,240 L97,135 L64,135 L64,112 L157,112 L157,123.5 Z M222,113.4 C226.1,114.2 230.7,115.3 232.3,115.9 L235,117 L235,129.5 C235,136.4 234.8,142 234.6,142 C234.4,142 232.3,140.9 229.9,139.6 C220.9,134.5 206.5,132.6 197.7,135.2 C195.6,135.8 192.5,137.7 190.9,139.3 C188.5,141.6 188,143 188,146.7 C188,150.7 188.5,151.8 191.8,154.9 C193.9,156.9 201.7,161.5 209.3,165.3 C225.3,173.2 233.4,179.9 237.1,188.2 C240.4,195.6 240.5,211.2 237.3,218.2 C234.3,224.8 227.7,231.5 221.2,234.6 C207.4,241.1 184.9,241.7 167.3,235.9 L161,233.8 L161,206 L166,209.6 C172.5,214.3 180.9,217.2 189.7,217.8 C198.5,218.4 205,216.8 209,213 C211.5,210.7 212,209.4 212,205.6 C212,198.3 207.8,194.5 190.6,186.1 C175.4,178.6 170.6,175.2 166.1,168.6 C156.1,154.1 159.1,131.9 172.5,121.8 C183.9,113.1 202.8,109.9 222,113.4 Z" id="Shape"></path>
        </g>
    </g>
</svg>