<?xml version="1.0" encoding="UTF-8"?>
<svg width="261px" height="75px" viewBox="0 0 261 75" version="1.1" xmlns="http://www.w3.org/2000/svg" xmlns:xlink="http://www.w3.org/1999/xlink">
    <!-- Generator: Sketch 48.2 (47327) - http://www.bohemiancoding.com/sketch -->
    <title>Artboard 3</title>
    <desc>Created with Sketch.</desc>
    <defs></defs>
    <g id="Page-1" stroke="none" stroke-width="1" fill="none" fill-rule="evenodd">
        <g id="Artboard-3" fill="#939598" fill-rule="nonzero">
            <g id="node" transform="translate(1.000000, 1.000000)">
                <path d="M137.625234,0.000110640028 C137.436468,0.00241564009 137.245536,0.0474691714 137.077072,0.146284524 C136.740713,0.3437631 136.528906,0.70643642 136.528906,1.09643321 L136.528906,29.052645 C136.528906,29.3273364 136.400997,29.5727959 136.163467,29.7105565 C135.925338,29.8486629 135.634751,29.8486629 135.39604,29.7105565 L130.828024,27.0793759 C130.147426,26.686922 129.316123,26.6871571 128.635374,27.0793759 L110.39985,37.6040892 C109.718082,37.9973637 109.303523,38.7539707 109.303523,39.5408701 L109.303523,60.5902967 C109.303523,61.3766059 109.718667,62.0966142 110.39985,62.4905894 L128.635374,73.0153027 C129.317142,73.4086925 130.146255,73.4086925 130.828024,73.0153027 L149.063548,62.4905894 C149.74473,62.0966142 150.159875,61.3766059 150.159875,60.5902967 L150.159875,8.11290873 C150.159875,7.31463189 149.724267,6.56548382 149.027004,6.17606789 L138.173395,0.109741053 C138.002954,0.0146690204 137.813999,-0.00193620003 137.625234,0.000170570029 L137.625234,0.000110640028 Z M20.3185433,26.2752905 C19.9707926,26.2893049 19.6440819,26.3501292 19.3318512,26.5311547 L1.09632257,37.055868 C0.416836212,37.4486722 2.84217094e-14,38.1641212 2.84217094e-14,38.9561653 L0.0364651011,67.2047249 C0.0364651011,67.597649 0.239171417,67.9625028 0.584630997,68.1549888 C0.923230897,68.357649 1.34349695,68.357649 1.68095357,68.1549888 L12.4980192,61.9423682 C13.1832266,61.535296 13.6308853,60.8272184 13.6308853,60.0420754 L13.6308853,46.849698 C13.6308853,46.0627986 14.0448356,45.340573 14.7272125,44.9494006 L19.3317728,42.2817411 C19.6754391,42.0830547 20.0443912,41.9893841 20.4280954,41.9893841 C20.8039256,41.9893841 21.1902621,42.0829394 21.5244225,42.2817411 L26.1289829,44.9494006 C26.8113367,45.340573 27.2253054,46.0627986 27.2253054,46.849698 L27.2253054,60.0420754 C27.2253054,60.8272184 27.6774358,61.5398599 28.3581761,61.9423682 L39.1752418,68.1549888 C39.5149573,68.357649 39.9346333,68.357649 40.2715643,68.1549888 C40.6073383,67.9625028 40.8197256,67.597649 40.8197256,67.2047249 L40.8561907,38.9561653 C40.8561907,38.1641212 40.4439737,37.4486722 39.7598682,37.055868 L21.5243811,26.5311547 C21.215949,26.3501292 20.8877907,26.2895538 20.5376889,26.2752905 L20.3184235,26.2752905 L20.3185433,26.2752905 Z M184.182469,26.5311547 C183.801498,26.5306937 183.428194,26.6270473 183.086141,26.8235071 L164.850617,37.3482203 C164.169435,37.7416101 163.754295,38.4616184 163.754295,39.2485177 L163.754295,60.2979397 C163.754295,61.0893983 164.200133,61.8070693 164.887161,62.1982371 L182.976511,72.5036849 C183.644537,72.8851486 184.460203,72.9136799 185.132613,72.5399195 L196.095857,66.4369893 C196.443755,66.2440331 196.6791,65.8836233 196.680562,65.4868406 C196.682867,65.0899426 196.475915,64.7342073 196.1324,64.5366919 L177.787241,54.0119786 C177.443727,53.8161043 177.202537,53.4192063 177.202537,53.0252311 L177.202537,46.4472865 C177.202537,46.054012 177.44665,45.6935976 177.787241,45.497253 L183.488129,42.2081655 C183.827259,42.0119362 184.24386,42.0119362 184.584451,42.2081655 L190.285339,45.497253 C190.62593,45.6935976 190.8335,46.054012 190.8335,46.4472865 L190.8335,51.6366714 C190.8335,52.0305268 191.04107,52.3903557 191.381662,52.5867003 C191.723714,52.7836302 192.137397,52.7844462 192.477989,52.5867003 L203.404685,46.2281363 C204.082945,45.8341611 204.501007,45.1122811 204.501007,44.3278435 L204.501007,39.2481489 C204.501007,38.4635868 204.084406,37.7418268 203.404685,37.3478515 L185.278791,26.8231383 C184.937462,26.6252771 184.563439,26.5312561 184.182469,26.5307859 L184.182469,26.5311547 Z M129.658609,42.2451377 C129.753681,42.2451377 129.865594,42.2685104 129.950962,42.3176391 L136.200011,45.9355672 C136.369576,46.0337971 136.492363,46.2147074 136.492363,46.4105817 L136.492363,53.6463226 C136.492363,53.8427824 136.370747,54.0238079 136.200011,54.1214569 L129.950962,57.7392651 C129.780811,57.8363287 129.572951,57.8363287 129.402801,57.7392651 L123.153752,54.1214569 C122.983601,54.023227 122.861399,53.8427824 122.861399,53.6463226 L122.861399,46.4105817 C122.861399,46.2147074 122.984187,46.0342673 123.153752,45.9355672 L129.402801,42.3182246 C129.488169,42.2691097 129.563524,42.2457231 129.658609,42.2457231 L129.658609,42.2451377 Z" id="path22"></path>
                <path d="M238.815958,26.0195369 C238.183738,26.0195369 237.569073,26.1502765 237.025296,26.4580677 L219.813003,36.3980717 C218.699139,37.039378 218.022341,38.2515914 218.022341,39.5408701 L218.022341,59.3843944 C218.022341,60.6729724 218.699139,61.8837797 219.813003,62.5270776 L224.307933,65.1217701 C226.49181,66.1980944 227.297246,66.1814892 228.291245,66.1814892 C231.524671,66.1814892 233.37088,64.2195654 233.37088,60.8095575 L233.37088,41.221902 C233.37088,40.9449839 233.13115,40.7467678 232.859262,40.7467678 L230.70316,40.7467678 C230.426883,40.7467678 230.191538,40.9449839 230.191538,41.221902 L230.191538,60.8095575 C230.191538,62.3210244 228.617218,63.841029 226.062052,62.5636764 L221.384404,59.8229253 C221.219224,59.7328827 221.092047,59.5739576 221.092047,59.3843944 L221.092047,39.5408701 C221.092047,39.3524778 221.217762,39.1611628 221.384404,39.0658557 L238.560149,29.1623353 C238.720942,29.0699509 238.912432,29.0699509 239.071767,29.1623353 L256.247512,39.0658557 C256.411232,39.1640856 256.539864,39.3467476 256.539864,39.5408701 L256.539864,59.3843944 C256.539864,59.5739576 256.444792,59.7680801 256.284056,59.8594134 L239.071767,69.7629338 C238.924127,69.850639 238.720942,69.850639 238.560149,69.7629338 L234.138306,67.1317532 C234.006746,67.0545725 233.826952,67.060418 233.699775,67.1317532 C232.479204,67.8236957 232.249705,67.9041495 231.105143,68.3011673 C230.823025,68.3993972 230.394723,68.5522417 231.251321,69.0320505 L237.025296,72.430598 C237.574919,72.7486741 238.187399,72.9056124 238.815958,72.9056124 C239.453286,72.9056124 240.056998,72.7486741 240.606621,72.430598 L257.818909,62.5270776 C258.932777,61.8792204 259.609571,60.6729724 259.609571,59.3843944 L259.609571,39.5408701 C259.609571,38.2515914 258.932777,37.0420702 257.818909,36.3980717 L240.606621,26.4580677 C240.067228,26.1502765 239.448178,26.0195369 238.815958,26.0195369 Z M75.0982068,26.4214643 C74.7182183,26.4214643 74.3421852,26.5173569 74.0018842,26.7138167 L55.7663603,37.2020465 C55.0845919,37.594966 54.6700331,38.3526287 54.6700331,39.1388274 L54.6700331,60.1882493 C54.6700331,60.9753838 55.0850345,61.6948066 55.7663603,62.0885467 L74.0018842,72.61326 C74.6836525,73.0070001 75.5127657,73.0070001 76.194534,72.61326 L94.430058,62.0885467 C95.1106553,61.6948066 95.5263851,60.9753838 95.5263851,60.1882493 L95.5263851,39.1388274 C95.5263851,38.3514624 95.1118263,37.594966 94.430058,37.2020465 L76.194534,26.7138167 C75.854233,26.5173569 75.4781953,26.4214643 75.0982068,26.4214643 Z M243.420519,40.1988969 C238.519217,40.1988969 235.600073,42.2847791 235.600073,45.7536059 C235.600073,49.5166614 238.497292,50.550537 243.201253,51.0159626 C248.829054,51.566876 249.26758,52.3931817 249.26758,53.5009647 C249.26758,55.4224266 247.735649,56.2417158 244.114858,56.2417158 C239.565844,56.2417158 238.565995,55.1061022 238.231249,52.843173 C238.191833,52.6005164 238.004677,52.4046421 237.756179,52.4046421 L235.526986,52.4046421 C235.252175,52.4046421 235.015368,52.6409784 235.015368,52.9162599 C235.015368,55.8128936 236.591149,59.2384556 244.114858,59.2384556 C249.561398,59.2384556 252.702731,57.1005358 252.702731,53.3547908 C252.702731,49.6414357 250.165106,48.6447445 244.882285,47.9462557 C239.543914,47.2399299 239.035224,46.8942536 239.035224,45.6440354 C239.035224,44.612027 239.466443,43.232005 243.420519,43.232005 C246.952143,43.232005 248.257501,43.9936416 248.792506,46.3749187 C248.839283,46.5987434 249.036624,46.7768416 249.26758,46.7768416 L251.496773,46.7768416 C251.634179,46.7768416 251.7672,46.6926445 251.862217,46.5940643 C251.955768,46.488818 252.021548,46.3702395 252.008391,46.2287402 C251.663415,42.1277256 248.92845,40.1988969 243.420519,40.1988969 Z M184.145925,59.035505 C184.073069,59.035505 183.99244,59.035505 183.92666,59.0717396 L180.418422,61.1182108 C180.286862,61.1930542 180.199157,61.3323269 180.199157,61.4836502 L180.199157,65.5035057 C180.199157,65.654829 180.286862,65.7935208 180.418422,65.8689497 L183.92666,67.8788175 C184.058215,67.9548272 184.198548,67.9548272 184.328643,67.8788175 L187.83688,65.8689497 C187.966979,65.7941063 188.056146,65.654829 188.056146,65.5035057 L188.056146,61.4836502 C188.056146,61.3323269 187.967039,61.1935198 187.83688,61.1182108 L184.328643,59.0717396 C184.263623,59.0331539 184.218837,59.035505 184.145925,59.035505 Z" id="path28"></path>
            </g>
        </g>
    </g>
</svg>